<?xml version="1.0" encoding="UTF-8" standalone="no"?>
<svg width="780px" height="334px" viewBox="0 0 780 334" version="1.1" xmlns="http://www.w3.org/2000/svg" xmlns:xlink="http://www.w3.org/1999/xlink">
    <!-- Generator: Sketch 46.2 (44496) - http://www.bohemiancoding.com/sketch -->
    <title>MyID_logo_dark</title>
    <desc>Created with Sketch.</desc>
    <defs></defs>
    <g id="Page-1" stroke="none" stroke-width="1" fill="none" fill-rule="evenodd">
        <g id="MyID_logo_dark">
            <g id="Group" transform="translate(11.000000, 28.000000)">
                <path d="M0,0 L43.5614131,0 L112.102098,163.400844 L113.320599,163.400844 L181.252034,0 L224.813447,0 L224.813447,215.835443 L195.569421,215.835443 L195.569421,38.4113924 L194.960171,38.4113924 L122.154732,215.835443 L102.658715,215.835443 L29.8532761,38.4113924 L29.2440256,38.4113924 L29.2440256,215.835443 L0,215.835443 L0,0 Z M244.162792,71.335443 L275.84382,71.335443 L318.795983,184.130802 L319.405233,184.130802 L360.225019,71.335443 L389.77367,71.335443 L321.232985,246.93038 C318.79597,253.230693 316.257452,258.972021 313.617353,264.154536 C310.977254,269.337051 307.829491,273.757366 304.17397,277.415612 C300.518448,281.073858 296.101426,283.919118 290.922771,285.951477 C285.744115,287.983836 279.397819,289 271.883691,289 C267.822001,289 263.709601,288.745959 259.546368,288.237869 C255.383135,287.729779 251.372276,286.662807 247.51367,285.03692 L250.864548,260.03903 C256.34783,262.274624 261.83103,263.392405 267.314312,263.392405 C271.579088,263.392405 275.183784,262.833515 278.128509,261.715717 C281.073235,260.59792 283.611754,258.972057 285.744141,256.83808 C287.876529,254.704103 289.653492,252.214501 291.075083,249.369198 C292.496675,246.523896 293.918245,243.27217 295.339837,239.613924 L304.17397,216.75 L244.162792,71.335443 Z M417.527315,177.050792 L417.527315,44.6289111 C417.527315,38.9035291 417.296628,34.4248702 416.835247,31.1927997 C416.373867,27.9607293 415.220433,25.5597987 413.374911,23.9899359 C411.52939,22.4200731 408.853423,21.4042948 405.346932,20.9425705 C401.84044,20.4808461 397.042155,20.2499874 390.951933,20.2499874 L390.951933,6.67535947 C393.720216,6.86004921 471.231717,7.13708243 474,6.95239269 L474,20.2499874 C467.909778,20.2499874 463.157631,20.4808461 459.743415,20.9425705 C456.3292,21.4042948 453.745508,22.4200731 451.992262,23.9899359 C450.239017,25.5597987 449.13172,27.9607293 448.67034,31.1927997 C448.208959,34.4248702 447.978272,38.9035291 447.978272,44.6289111 L447.978272,177.050792 C447.978272,182.776174 448.255097,187.347176 448.808753,190.763936 C449.36241,194.180697 450.561981,196.812486 452.407503,198.659383 C454.253024,200.506281 456.882854,201.752918 460.297069,202.399332 C463.711284,203.045746 468.278882,203.368948 474,203.368948 L474,216.666543 C469.7553,216.481853 395.381186,216.758886 390.951933,216.943576 L390.951933,203.368948 C396.673051,203.368948 401.286786,203.045746 404.793278,202.399332 C408.299769,201.752918 411.021873,200.506281 412.959671,198.659383 C414.897469,196.812486 416.143177,194.180697 416.696834,190.763936 C417.250491,187.347176 417.527315,182.776174 417.527315,177.050792 Z" id="Combined-Shape" fill="#5C514D"></path>
                <path d="M752.871261,135.062071 C753.390753,139.824318 752.18514,148.800074 751.9597,149.985736 C751.577433,152.70982 749.509268,159.010487 749.176009,159.774798 C747.519517,163.606153 745.863025,166.751587 744.137921,169.867625 C741.158195,175.227602 734.091149,183.713415 729.905811,187.329195 C714.272054,200.841824 690.100992,208.53393 669.360535,211.042438 C655.265649,212.74744 639.082995,212.492669 624.184368,209.739189 C619.058064,208.798499 611.402914,207.0641 611.402914,207.0641 C611.402914,207.0641 611.432319,210.091948 611.187276,212.257497 C611.079457,213.227584 610.334526,215.804684 609.922853,216.647386 C608.834861,218.891325 607.060748,220.037792 604.453489,220.537534 C601.346341,221.125466 598.013753,221.321443 595.141847,220.096585 C590.39781,218.07802 588.702111,213.648935 587.878766,208.553527 C587.202447,204.438006 586.506524,197.333832 586.506524,197.333832 C586.506524,197.333832 582.958298,195.658226 579.998176,194.178599 C570.911974,189.69072 562.286453,184.281749 554.748924,178.715996 C552.651354,177.167776 543.67297,169.642251 541.68322,167.751071 C536.12564,162.50868 531.126758,157.227094 527.323687,150.485478 C524.373367,145.233289 523.520617,140.559232 525.755411,134.993479 C528.872361,127.232782 540.007124,121.373063 547.632869,118.031651 C553.249259,115.562338 570.637525,109.8692 577.881003,108.820722 C581.301806,108.330779 586.584938,107.399887 586.918196,107.174514 C587.055421,107.086324 587.143636,106.988335 587.241653,106.880548 C587.408283,106.655174 587.682731,98.9336717 587.623921,96.1409963 C587.565111,93.3679187 589.682284,75.2008308 590.358603,71.3596774 C590.721267,69.2823189 592.299345,61.2766497 593.897027,59.1600957 C594.955614,57.7686575 596.798339,57.876445 598.327408,58.8073367 C606.619671,63.9517387 609.158318,81.8444585 609.756224,90.957399 C610.118888,96.4839565 610.305121,104.822787 610.305121,104.822787 C610.305121,104.822787 619.822599,104.53862 625.684033,104.685603 C631.359233,104.842385 637.63234,105.74388 643.552583,106.684571 C651.109716,107.899629 665.831912,111.103857 674.2712,115.385959 C681.240229,118.913549 687.748577,124.84186 689.86575,131.142527 C691.816294,136.914056 691.522243,140.902192 688.542517,146.115186 C685.190326,151.965106 678.838806,156.335398 672.389269,156.688157 C670.487733,156.805743 663.263859,155.855254 661.058471,154.130654 C660.176315,153.434935 660.225324,152.229675 660.852634,151.386973 C661.087876,151.07341 664.45967,149.299816 666.449421,148.251338 C667.449197,147.702602 668.282344,147.104871 669.046879,146.418951 C670.703371,144.949122 672.183432,143.351908 672.016803,141.470526 C671.791363,139.040409 669.213509,137.531384 666.763076,136.561297 C655.226442,131.995028 632.19238,128.173472 621.047815,127.516949 C616.695848,127.252379 610.501155,127.056402 610.501155,127.056402 L611.814587,188.495259 C611.814587,188.495259 616.921287,189.475145 620.969401,190.12187 C623.292411,190.484428 633.094139,191.356527 635.701399,191.425119 C655.569503,191.964056 677.741012,190.180663 695.982029,181.587062 C703.980239,177.804702 711.321734,173.130646 716.879314,166.771185 C724.201205,158.373561 728.043483,146.879497 727.033905,134.875893 C725.916508,121.765017 716.68328,106.214225 709.322181,96.728928 C689.855949,71.7026375 656.471262,51.0956333 627.095481,39.0430345 C597.121796,26.7356654 567.491171,19.6314913 535.664958,18.4458292 C527.490317,18.1420645 509.582559,18.5634155 500.545365,21.0523261 C499.241735,21.414884 497.967511,21.8656316 496.752096,22.1302008 C495.81113,22.3555746 494.311466,22.963104 493.919397,23.3060641 C493.684155,23.5020413 493.458716,23.737214 493.458716,23.737214 C493.458716,23.737214 493.997811,24.0409787 494.556509,24.2761513 C495.497475,24.7073012 499.525986,24.9522727 501.623555,25.3442272 C503.476082,25.6871873 505.416824,26.6572745 506.200963,28.0389139 C506.926291,29.3421624 507.024308,30.3416462 506.13235,31.4391186 C504.103393,33.9280292 496.379631,33.5164771 492.988233,32.9677409 C489.45961,32.3896081 485.068436,31.3313311 484.274496,28.2642877 C483.313927,24.6387092 485.039031,21.0915216 486.901359,17.8187021 C490.635818,11.2436665 495.97776,7.86305952 503.809341,5.70731015 C514.914699,2.65986444 528.950774,0.523712789 539.448426,0.121959497 C563.198014,-0.779535695 585.683179,3.38498014 608.687835,10.3519702 C621.861358,14.3499054 639.112401,21.0131307 651.737027,27.1080221 C660.793824,31.478314 675.055339,39.4937821 683.082954,44.7459715 C685.6118,46.4117779 700.402609,57.2885133 702.706015,59.1796935 C707.49906,63.1188355 713.772166,68.7433816 718.310366,73.2410587 C727.112319,81.9620448 738.031444,95.2884955 743.343981,105.881064 C744.618206,108.40917 745.617982,110.917678 747.264672,113.867136 C747.833173,114.866619 750.2542,120.88312 750.646269,122.607719 C751.04814,124.351917 751.646045,126.880023 751.724459,126.98781 C751.851881,127.908903 752.949675,133.082702 752.871261,135.062071 Z M586.48692,128.036288 C586.48692,128.036288 577.420322,128.702611 571.166819,129.368933 C563.227419,130.231233 548.279783,132.798535 539.673865,135.894975 C537.105812,136.816067 531.832483,139.001213 531.391405,141.666504 C530.901318,144.419983 532.606819,146.585532 534.518156,148.800074 C535.606148,150.093524 541.830246,156.080628 543.574953,157.540658 C550.896844,163.645348 565.72686,173.062054 576.665588,177.628323 C580.41965,179.19614 586.614343,181.410683 586.614343,181.410683 C586.614343,181.410683 586.173265,163.733538 586.261481,146.311164 C586.290886,137.149229 586.48692,128.036288 586.48692,128.036288 L586.48692,128.036288 Z" id="Fill-705-Copy" fill="#309DDF"></path>
            </g>
        </g>
    </g>
</svg>